<svg width="1440" height="777" viewBox="0 0 1440 777" fill="none" xmlns="http://www.w3.org/2000/svg">
<g clip-path="url(#clip0_70_210)">
<path d="M0 659.25C120 541.5 240 541.5 360 659.25C480 777 600 777 720 659.25C840 541.5 960 541.5 1080 659.25C1200 777 1320 777 1440 659.25" stroke="#444444" stroke-width="2"/>
<path d="M0 635.7C144 517.95 264 517.95 384 635.7C504 753.45 624 753.45 744 635.7C864 517.95 984 517.95 1104 635.7C1224 753.45 1344 753.45 1440 635.7" stroke="#555555" stroke-width="2"/>
<path d="M0 612.15C168 494.4 288 494.4 408 612.15C528 729.9 648 729.9 768 612.15C888 494.4 1008 494.4 1128 612.15C1248 729.9 1368 729.9 1440 612.15" stroke="#666666" stroke-width="2"/>
<path d="M0 588.6C192 470.85 312 470.85 432 588.6C552 706.35 672 706.35 792 588.6C912 470.85 1032 470.85 1152 588.6C1272 706.35 1392 706.35 1440 588.6" stroke="black" stroke-width="2"/>
<path d="M0 565.05C216 447.3 336 447.3 456 565.05C576 682.8 696 682.8 816 565.05C936 447.3 1056 447.3 1176 565.05C1296 682.8 1416 682.8 1440 565.05" stroke="#222222" stroke-width="2"/>
</g>
<g clip-path="url(#clip1_70_210)">
<path d="M1440 308.25C1320 190.5 1200 190.5 1080 308.25C960 426 840 426 720 308.25C600 190.5 480 190.5 360 308.25C240 426 120 426 -5.72205e-05 308.25" stroke="#444444" stroke-width="2"/>
<path d="M1440 284.7C1296 166.95 1176 166.95 1056 284.7C936 402.45 816 402.45 696 284.7C576 166.95 456 166.95 336 284.7C216 402.45 95.9999 402.45 -5.72205e-05 284.7" stroke="#555555" stroke-width="2"/>
<path d="M1440 261.15C1272 143.4 1152 143.4 1032 261.15C912 378.9 792 378.9 672 261.15C552 143.4 432 143.4 312 261.15C192 378.9 71.9999 378.9 -5.72205e-05 261.15" stroke="#666666" stroke-width="2"/>
<path d="M1440 237.6C1248 119.85 1128 119.85 1008 237.6C888 355.35 768 355.35 648 237.6C528 119.85 408 119.85 288 237.6C168 355.35 47.9999 355.35 -5.72205e-05 237.6" stroke="black" stroke-width="2"/>
<path d="M1440 214.05C1224 96.3 1104 96.3 984 214.05C864 331.8 744 331.8 624 214.05C504 96.3 384 96.3 264 214.05C144 331.8 23.9999 331.8 -5.72205e-05 214.05" stroke="#222222" stroke-width="2"/>
</g>
<defs>
<clipPath id="clip0_70_210">
<rect width="1440" height="471" fill="white" transform="translate(0 306)"/>
</clipPath>
<clipPath id="clip1_70_210">
<rect width="1440" height="471" fill="white" transform="matrix(-1 0 0 1 1440 -45)"/>
</clipPath>
</defs>
</svg>
