<svg width="876" height="680" viewBox="0 0 876 680" fill="none" xmlns="http://www.w3.org/2000/svg">
<path d="M232.264 211.477C242.687 225.634 231.632 251.47 207.573 269.184C183.513 286.897 155.56 289.781 145.137 275.624C134.714 261.468 145.769 235.632 169.828 217.918C193.888 200.204 221.841 197.321 232.264 211.477Z" fill="url(#paint0_linear_68_159)"/>
<path d="M459.564 212.769C469.987 226.925 458.933 252.761 434.873 270.475C410.814 288.189 382.861 291.072 372.438 276.915C362.015 262.759 373.07 236.923 397.129 219.209C421.188 201.495 449.142 198.612 459.564 212.769Z" fill="url(#paint1_linear_68_159)"/>
<path d="M272.584 428.898C275.26 451.62 225.387 476.169 161.189 483.729C96.9911 491.289 42.7794 478.997 40.1036 456.275C37.4278 433.553 87.3011 409.004 151.499 401.444C215.697 393.884 269.908 406.176 272.584 428.898Z" fill="url(#paint2_linear_68_159)"/>
<path d="M320.347 184.181C347.484 189.891 355.593 260.532 338.459 341.964C321.326 423.395 285.438 484.779 258.301 479.07C231.165 473.36 223.056 402.718 240.19 321.287C257.323 239.856 293.211 178.472 320.347 184.181Z" fill="url(#paint3_linear_68_159)"/>
<path d="M320.347 184.181C347.484 189.891 355.593 260.532 338.459 341.964C321.326 423.395 285.438 484.779 258.301 479.07C231.165 473.36 223.056 402.718 240.19 321.287C257.323 239.856 293.211 178.472 320.347 184.181Z" fill="url(#paint4_linear_68_159)"/>
<path d="M756.806 177.39C781.863 182.663 791.024 239.94 777.267 305.322C763.51 370.705 732.045 419.434 706.988 414.162C681.931 408.89 672.77 351.613 686.527 286.23C700.284 220.848 731.749 172.118 756.806 177.39Z" fill="url(#paint5_linear_68_159)"/>
<path d="M529.917 187.474C555.844 192.929 563.284 261.883 546.535 341.487C529.786 421.091 495.19 481.201 469.263 475.746C443.337 470.291 435.897 401.337 452.646 321.733C469.395 242.129 503.991 182.019 529.917 187.474Z" fill="url(#paint6_linear_68_159)"/>
<path d="M209.391 413.639C190.174 429.285 165.953 431.353 155.292 418.259C144.631 405.165 151.568 381.866 170.785 366.22C190.003 350.574 214.224 348.506 224.884 361.6C235.545 374.694 228.609 397.993 209.391 413.639Z" fill="url(#paint7_linear_68_159)"/>
<path d="M494.037 281.611C497.581 300.969 451.031 325.71 390.065 336.871C329.099 348.031 276.804 341.386 273.26 322.028C269.716 302.669 316.266 277.929 377.232 266.768C438.198 255.607 490.494 262.253 494.037 281.611Z" fill="url(#paint8_linear_68_159)"/>
<path d="M294.332 271.741C297.876 291.099 251.326 315.84 190.36 327C129.394 338.161 77.0986 331.516 73.5548 312.157C70.011 292.799 116.561 268.059 177.527 256.898C238.493 245.737 290.789 252.383 294.332 271.741Z" fill="url(#paint9_linear_68_159)"/>
<path d="M213.656 286.662C224.244 299.205 203.851 333.837 168.106 364.014C132.36 394.192 94.7985 408.487 84.2095 395.945C73.6205 383.402 94.0139 348.77 129.759 318.593C165.505 288.415 203.067 274.119 213.656 286.662Z" fill="url(#paint10_linear_68_159)"/>
<path d="M186.752 285.917C202.134 275.643 229.587 289.746 248.069 317.418C266.552 345.089 269.065 375.85 253.683 386.124C238.3 396.398 210.848 382.295 192.365 354.624C173.883 326.952 171.369 296.191 186.752 285.917Z" fill="url(#paint11_linear_68_159)"/>
<path d="M663.281 207.87C677.343 221.337 659.122 263.186 622.582 301.342C586.042 339.499 545.02 359.513 530.958 346.046C516.895 332.579 535.117 290.73 571.657 252.574C608.196 214.418 649.218 194.403 663.281 207.87Z" fill="url(#paint12_linear_68_159)"/>
<path d="M636.797 207.227C655.043 195.04 687.607 211.769 709.53 244.592C731.454 277.415 734.435 313.903 716.189 326.09C697.943 338.277 665.379 321.548 643.455 288.725C621.532 255.902 618.551 219.414 636.797 207.227Z" fill="url(#paint13_linear_68_159)"/>
<path d="M625.357 330.963C648.186 336.336 659.32 372.014 650.226 410.65C641.131 449.286 615.252 476.25 592.422 470.876C569.593 465.502 558.459 429.825 567.553 391.189C576.648 352.553 602.527 325.589 625.357 330.963Z" fill="url(#paint14_linear_68_159)"/>
<path d="M811.194 423.987C814.052 448.324 763.32 474.282 697.881 481.964C632.443 489.647 577.078 476.146 574.221 451.809C571.364 427.472 622.096 401.515 687.534 393.832C752.973 386.149 808.337 399.65 811.194 423.987Z" fill="url(#paint15_linear_68_159)"/>
<path d="M567.281 334.984C578.04 349.577 570.779 373.191 551.063 387.728C531.347 402.265 506.642 402.219 495.882 387.626C485.123 373.033 492.384 349.419 512.1 334.882C531.816 320.346 556.522 320.391 567.281 334.984Z" fill="url(#paint16_linear_68_159)"/>
<path d="M461.791 316.209C487.635 348.1 472.69 403.043 428.41 438.928C384.129 474.814 327.282 478.053 301.437 446.162C275.593 414.272 290.538 359.328 334.818 323.443C379.099 287.557 435.946 284.319 461.791 316.209Z" fill="url(#paint17_linear_68_159)"/>
<path d="M159.699 209.305C171.64 200.513 184.519 195.425 195.663 194.275C206.827 193.124 216.096 195.928 221.086 202.705C226.075 209.482 226 219.166 221.586 229.484C217.179 239.784 208.495 250.571 196.554 259.363C184.613 268.154 171.734 273.243 160.59 274.392C149.426 275.544 140.157 272.739 135.167 265.962C130.178 259.185 130.253 249.501 134.667 239.183C139.074 228.883 147.758 218.096 159.699 209.305Z" stroke="black" stroke-width="1.5"/>
<path d="M387 210.596C398.941 201.804 411.82 196.716 422.964 195.566C434.127 194.415 443.397 197.219 448.386 203.996C453.376 210.773 453.301 220.457 448.886 230.776C444.479 241.075 435.796 251.862 423.855 260.654C411.914 269.446 399.034 274.534 387.891 275.683C376.727 276.835 367.457 274.03 362.468 267.254C357.478 260.477 357.553 250.792 361.968 240.474C366.375 230.175 375.059 219.387 387 210.596Z" stroke="black" stroke-width="1.5"/>
<path d="M141.013 392.972C173.05 389.199 202.564 390.385 224.373 395.329C235.281 397.803 244.22 401.207 250.579 405.37C256.943 409.535 260.633 414.395 261.265 419.768C261.898 425.142 259.439 430.726 254.217 436.256C248.998 441.782 241.094 447.17 231.059 452.109C210.996 461.985 182.565 469.993 150.528 473.766C118.491 477.539 88.9764 476.354 67.1673 471.409C56.2594 468.936 47.3202 465.532 40.9607 461.369C34.5971 457.204 30.9076 452.344 30.2747 446.97C29.6419 441.597 32.1017 436.013 37.3235 430.483C42.542 424.957 50.4459 419.569 60.4809 414.63C80.5446 404.754 108.976 396.744 141.013 392.972Z" stroke="black" stroke-width="1.5"/>
<path d="M230.35 312.224C238.905 271.566 252.136 235.943 266.591 211.218C273.821 198.852 281.335 189.25 288.692 183.103C296.056 176.948 303.157 174.338 309.62 175.698C316.082 177.058 321.529 182.308 325.789 190.908C330.045 199.499 333.052 211.315 334.685 225.545C337.951 253.999 335.706 291.933 327.151 332.591C318.597 373.25 305.365 408.874 290.91 433.598C283.68 445.964 276.167 455.566 268.811 461.714C261.446 467.868 254.345 470.478 247.883 469.118C241.42 467.759 235.973 462.509 231.713 453.908C227.457 445.318 224.449 433.502 222.816 419.271C219.55 390.818 221.795 352.883 230.35 312.224Z" stroke="black" stroke-width="1.5"/>
<path d="M230.35 312.224C238.905 271.566 252.136 235.943 266.591 211.218C273.821 198.852 281.335 189.25 288.692 183.103C296.056 176.948 303.157 174.338 309.62 175.698C316.082 177.058 321.529 182.308 325.789 190.908C330.045 199.499 333.052 211.315 334.685 225.545C337.951 253.999 335.706 291.933 327.151 332.591C318.597 373.25 305.365 408.874 290.91 433.598C283.68 445.964 276.167 455.566 268.811 461.714C261.446 467.868 254.345 470.478 247.883 469.118C241.42 467.759 235.973 462.509 231.713 453.908C227.457 445.318 224.449 433.502 222.816 419.271C219.55 390.818 221.795 352.883 230.35 312.224Z" stroke="black" stroke-width="1.5"/>
<path d="M676.687 277.168C683.552 244.543 694.829 216.105 707.486 196.504C713.815 186.702 720.468 179.143 727.055 174.368C733.642 169.593 740.093 167.648 746.078 168.907C752.063 170.166 757.183 174.546 761.288 181.57C765.392 188.595 768.435 198.194 770.278 209.716C773.963 232.756 772.824 263.326 765.959 295.951C759.095 328.576 747.818 357.012 735.162 376.614C728.832 386.416 722.179 393.975 715.592 398.75C709.005 403.525 702.554 405.47 696.569 404.211C690.583 402.951 685.463 398.572 681.359 391.547C677.255 384.522 674.213 374.924 672.37 363.402C668.685 340.362 669.823 309.793 676.687 277.168Z" stroke="black" stroke-width="1.5"/>
<path d="M442.806 312.67C451.169 272.923 463.982 238.074 477.916 213.863C484.885 201.754 492.114 192.344 499.175 186.309C506.246 180.265 513.037 177.696 519.189 178.991C525.342 180.285 530.521 185.373 534.557 193.753C538.588 202.122 541.411 213.647 542.91 227.538C545.907 255.311 543.59 292.369 535.227 332.116C526.864 371.862 514.051 406.712 500.117 430.923C493.148 443.032 485.919 452.442 478.858 458.477C471.787 464.52 464.997 467.089 458.844 465.795C452.692 464.5 447.512 459.412 443.476 451.032C439.445 442.663 436.622 431.138 435.123 417.248C432.126 389.474 434.443 352.416 442.806 312.67Z" stroke="black" stroke-width="1.5"/>
<path d="M213.729 352.856C218.856 359.154 219.806 367.972 217.049 377.231C214.294 386.486 207.852 396.1 198.344 403.84C188.837 411.581 178.116 415.94 168.495 416.762C158.869 417.584 150.427 414.866 145.3 408.568C140.172 402.27 139.222 393.452 141.979 384.193C144.735 374.938 151.178 365.325 160.685 357.584C170.192 349.844 180.912 345.484 190.533 344.662C200.159 343.84 208.601 346.558 213.729 352.856Z" stroke="black" stroke-width="1.5"/>
<path d="M366.794 258.289C397.222 252.718 425.457 251.598 446.499 254.271C457.025 255.609 465.707 257.891 471.956 261.01C478.219 264.135 481.902 268.028 482.726 272.529C483.55 277.03 481.485 281.975 476.735 287.117C471.996 292.247 464.685 297.455 455.316 302.435C436.586 312.39 409.785 321.345 379.357 326.916C348.928 332.486 320.692 333.606 299.65 330.932C289.125 329.594 280.442 327.313 274.194 324.195C267.93 321.069 264.248 317.176 263.424 312.675C262.6 308.175 264.665 303.23 269.414 298.088C274.153 292.958 281.464 287.748 290.833 282.768C309.563 272.814 336.365 263.859 366.794 258.289Z" stroke="black" stroke-width="1.5"/>
<path d="M167.089 248.418C197.517 242.848 225.752 241.727 246.794 244.401C257.32 245.739 266.002 248.021 272.251 251.139C278.514 254.265 282.197 258.158 283.021 262.659C283.844 267.16 281.78 272.105 277.03 277.246C272.291 282.376 264.98 287.585 255.611 292.565C236.881 302.52 210.08 311.475 179.652 317.045C149.223 322.616 120.987 323.736 99.9451 321.062C89.4196 319.724 80.7374 317.443 74.4886 314.325C68.2254 311.199 64.5427 307.306 63.7187 302.805C62.8948 298.304 64.9596 293.359 69.7093 288.217C74.4481 283.088 81.7589 277.878 91.128 272.898C109.858 262.943 136.66 253.989 167.089 248.418Z" stroke="black" stroke-width="1.5"/>
<path d="M119.67 309.948C137.495 294.899 155.75 283.832 170.834 278.091C178.379 275.22 185.092 273.695 190.539 273.648C195.992 273.601 200.062 275.031 202.508 277.929C204.954 280.826 205.682 285.079 204.721 290.447C203.761 295.809 201.132 302.17 197.036 309.127C188.846 323.035 174.874 339.174 157.048 354.223C139.222 369.272 120.967 380.34 105.883 386.081C98.338 388.953 91.6261 390.476 86.1791 390.523C80.726 390.57 76.6548 389.141 74.2087 386.243C71.7627 383.346 71.0364 379.093 71.9973 373.725C72.9572 368.363 75.5851 362.001 79.6817 355.045C87.8714 341.137 101.844 324.997 119.67 309.948Z" stroke="black" stroke-width="1.5"/>
<path d="M182.415 344.99C173.231 331.24 168.037 316.752 167.033 304.468C166.027 292.155 169.233 282.241 176.594 277.324C183.956 272.406 194.343 273.242 205.331 278.887C216.294 284.519 227.688 294.866 236.872 308.617C246.056 322.367 251.25 336.855 252.254 349.138C253.26 361.451 250.054 371.366 242.692 376.283C235.33 381.2 224.944 380.364 213.956 374.719C202.993 369.087 191.599 358.74 182.415 344.99Z" stroke="black" stroke-width="1.5"/>
<path d="M561.624 243.876C579.849 224.845 599.17 210.362 615.652 202.32C623.896 198.298 631.393 195.905 637.664 195.338C643.937 194.77 648.887 196.033 652.188 199.194C655.489 202.356 656.966 207.246 656.67 213.538C656.374 219.828 654.307 227.421 650.645 235.831C643.324 252.646 629.692 272.575 611.467 291.606C593.242 310.638 573.921 325.119 557.438 333.161C549.194 337.184 541.698 339.577 535.427 340.145C529.154 340.712 524.204 339.449 520.903 336.287C517.601 333.126 516.125 328.235 516.421 321.944C516.717 315.654 518.783 308.061 522.445 299.65C529.766 282.836 543.4 262.907 561.624 243.876Z" stroke="black" stroke-width="1.5"/>
<path d="M633.505 279.091C622.601 262.765 616.429 245.558 615.236 230.959C614.041 216.331 617.846 204.507 626.64 198.633C635.434 192.76 647.813 193.774 660.868 200.481C673.896 207.174 687.428 219.465 698.332 235.791C709.237 252.117 715.409 269.325 716.602 283.924C717.797 298.551 713.992 310.375 705.199 316.249C696.405 322.122 684.025 321.109 670.97 314.402C657.942 307.709 644.41 295.417 633.505 279.091Z" stroke="black" stroke-width="1.5"/>
<path d="M557.709 382.143C562.231 362.933 570.92 346.661 581.272 335.875C591.637 325.074 603.559 319.874 614.611 322.475C625.663 325.077 634.013 335.049 638.473 349.339C642.927 363.611 643.444 382.05 638.922 401.26C634.4 420.47 625.712 436.743 615.36 447.53C604.994 458.33 593.072 463.53 582.02 460.929C570.968 458.327 562.618 448.355 558.159 434.065C553.705 419.793 553.187 401.354 557.709 382.143Z" stroke="black" stroke-width="1.5"/>
<path d="M677.048 385.359C709.702 381.526 739.81 382.983 762.081 388.413C773.219 391.13 782.357 394.831 788.869 399.328C795.383 403.827 799.196 409.065 799.876 414.858C800.556 420.65 798.06 426.629 792.765 432.514C787.472 438.398 779.44 444.114 769.233 449.336C748.826 459.777 719.874 468.168 687.22 472.002C654.566 475.835 624.458 474.379 602.187 468.948C591.049 466.231 581.911 462.532 575.398 458.034C568.884 453.536 565.072 448.297 564.392 442.504C563.712 436.712 566.207 430.733 571.502 424.848C576.796 418.964 584.828 413.247 595.035 408.025C615.442 397.584 644.394 389.193 677.048 385.359Z" stroke="black" stroke-width="1.5"/>
<path d="M501.972 326.269C511.713 319.086 522.665 315.524 532.474 315.542C542.283 315.561 550.898 319.151 556.104 326.212C561.309 333.272 562.193 342.563 559.309 351.94C556.426 361.316 549.786 370.724 540.044 377.907C530.302 385.089 519.351 388.652 509.541 388.634C499.732 388.615 491.118 385.024 485.912 377.964C480.707 370.903 479.823 361.613 482.706 352.236C485.589 342.86 492.23 333.451 501.972 326.269Z" stroke="black" stroke-width="1.5"/>
<path d="M324.717 314.808C346.749 296.953 371.884 287.241 394.687 285.942C417.492 284.642 437.903 291.754 450.635 307.464C463.366 323.174 466.095 344.615 460.1 366.656C454.105 388.696 439.396 411.274 417.364 429.129C395.332 446.983 370.197 456.696 347.394 457.995C324.589 459.294 304.178 452.183 291.446 436.473C278.714 420.762 275.986 399.321 281.981 377.28C287.976 355.241 302.685 332.663 324.717 314.808Z" stroke="black" stroke-width="1.5"/>
<defs>
<linearGradient id="paint0_linear_68_159" x1="425.655" y1="177" x2="425.655" y2="485.958" gradientUnits="userSpaceOnUse">
<stop stop-color="#A4A4A4"/>
<stop offset="0.365385" stop-color="#E9E9E9"/>
<stop offset="0.711538" stop-color="#D8F999"/>
</linearGradient>
<linearGradient id="paint1_linear_68_159" x1="425.655" y1="177" x2="425.655" y2="485.958" gradientUnits="userSpaceOnUse">
<stop stop-color="#A4A4A4"/>
<stop offset="0.365385" stop-color="#E9E9E9"/>
<stop offset="0.711538" stop-color="#D8F999"/>
</linearGradient>
<linearGradient id="paint2_linear_68_159" x1="425.655" y1="177" x2="425.655" y2="485.958" gradientUnits="userSpaceOnUse">
<stop stop-color="#A4A4A4"/>
<stop offset="0.365385" stop-color="#E9E9E9"/>
<stop offset="0.711538" stop-color="#D8F999"/>
</linearGradient>
<linearGradient id="paint3_linear_68_159" x1="425.655" y1="177" x2="425.655" y2="485.958" gradientUnits="userSpaceOnUse">
<stop stop-color="#A4A4A4"/>
<stop offset="0.365385" stop-color="#E9E9E9"/>
<stop offset="0.711538" stop-color="#D8F999"/>
</linearGradient>
<linearGradient id="paint4_linear_68_159" x1="425.655" y1="177" x2="425.655" y2="485.958" gradientUnits="userSpaceOnUse">
<stop stop-color="#A4A4A4"/>
<stop offset="0.365385" stop-color="#E9E9E9"/>
<stop offset="0.711538" stop-color="#D8F999"/>
</linearGradient>
<linearGradient id="paint5_linear_68_159" x1="425.655" y1="177" x2="425.655" y2="485.958" gradientUnits="userSpaceOnUse">
<stop stop-color="#A4A4A4"/>
<stop offset="0.365385" stop-color="#E9E9E9"/>
<stop offset="0.711538" stop-color="#D8F999"/>
</linearGradient>
<linearGradient id="paint6_linear_68_159" x1="425.655" y1="177" x2="425.655" y2="485.958" gradientUnits="userSpaceOnUse">
<stop stop-color="#A4A4A4"/>
<stop offset="0.365385" stop-color="#E9E9E9"/>
<stop offset="0.711538" stop-color="#D8F999"/>
</linearGradient>
<linearGradient id="paint7_linear_68_159" x1="425.655" y1="177" x2="425.655" y2="485.958" gradientUnits="userSpaceOnUse">
<stop stop-color="#A4A4A4"/>
<stop offset="0.365385" stop-color="#E9E9E9"/>
<stop offset="0.711538" stop-color="#D8F999"/>
</linearGradient>
<linearGradient id="paint8_linear_68_159" x1="425.655" y1="177" x2="425.655" y2="485.958" gradientUnits="userSpaceOnUse">
<stop stop-color="#A4A4A4"/>
<stop offset="0.365385" stop-color="#E9E9E9"/>
<stop offset="0.711538" stop-color="#D8F999"/>
</linearGradient>
<linearGradient id="paint9_linear_68_159" x1="425.655" y1="177" x2="425.655" y2="485.958" gradientUnits="userSpaceOnUse">
<stop stop-color="#A4A4A4"/>
<stop offset="0.365385" stop-color="#E9E9E9"/>
<stop offset="0.711538" stop-color="#D8F999"/>
</linearGradient>
<linearGradient id="paint10_linear_68_159" x1="425.655" y1="177" x2="425.655" y2="485.958" gradientUnits="userSpaceOnUse">
<stop stop-color="#A4A4A4"/>
<stop offset="0.365385" stop-color="#E9E9E9"/>
<stop offset="0.711538" stop-color="#D8F999"/>
</linearGradient>
<linearGradient id="paint11_linear_68_159" x1="425.655" y1="177" x2="425.655" y2="485.958" gradientUnits="userSpaceOnUse">
<stop stop-color="#A4A4A4"/>
<stop offset="0.365385" stop-color="#E9E9E9"/>
<stop offset="0.711538" stop-color="#D8F999"/>
</linearGradient>
<linearGradient id="paint12_linear_68_159" x1="425.655" y1="177" x2="425.655" y2="485.958" gradientUnits="userSpaceOnUse">
<stop stop-color="#A4A4A4"/>
<stop offset="0.365385" stop-color="#E9E9E9"/>
<stop offset="0.711538" stop-color="#D8F999"/>
</linearGradient>
<linearGradient id="paint13_linear_68_159" x1="425.655" y1="177" x2="425.655" y2="485.958" gradientUnits="userSpaceOnUse">
<stop stop-color="#A4A4A4"/>
<stop offset="0.365385" stop-color="#E9E9E9"/>
<stop offset="0.711538" stop-color="#D8F999"/>
</linearGradient>
<linearGradient id="paint14_linear_68_159" x1="425.655" y1="177" x2="425.655" y2="485.958" gradientUnits="userSpaceOnUse">
<stop stop-color="#A4A4A4"/>
<stop offset="0.365385" stop-color="#E9E9E9"/>
<stop offset="0.711538" stop-color="#D8F999"/>
</linearGradient>
<linearGradient id="paint15_linear_68_159" x1="425.655" y1="177" x2="425.655" y2="485.958" gradientUnits="userSpaceOnUse">
<stop stop-color="#A4A4A4"/>
<stop offset="0.365385" stop-color="#E9E9E9"/>
<stop offset="0.711538" stop-color="#D8F999"/>
</linearGradient>
<linearGradient id="paint16_linear_68_159" x1="425.655" y1="177" x2="425.655" y2="485.958" gradientUnits="userSpaceOnUse">
<stop stop-color="#A4A4A4"/>
<stop offset="0.365385" stop-color="#E9E9E9"/>
<stop offset="0.711538" stop-color="#D8F999"/>
</linearGradient>
<linearGradient id="paint17_linear_68_159" x1="425.655" y1="177" x2="425.655" y2="485.958" gradientUnits="userSpaceOnUse">
<stop stop-color="#A4A4A4"/>
<stop offset="0.365385" stop-color="#E9E9E9"/>
<stop offset="0.711538" stop-color="#D8F999"/>
</linearGradient>
</defs>
</svg>
